<svg xmlns="http://www.w3.org/2000/svg" viewBox="0 0 400.674 400.674"><path d="M336.91 73.586c-35.986-35.52-83.653-55.082-134.218-55.082-.518 0-1.036.01-1.522.02a190.41 190.41 0 00-51.863 7.551c-.618-.661-1.236-1.322-1.878-1.964C131.88 8.563 111.208 0 89.22 0S46.56 8.563 31.011 24.111A82.38 82.38 0 007.154 75.866a82.383 82.383 0 0015.474 54.848l3.738 5.144c-9.794 23.362-14.764 48.14-14.764 73.726 0 51.517 20.193 99.819 56.862 136.008 35.996 35.52 83.666 55.082 134.228 55.082 50.565 0 98.231-19.562 134.218-55.082 36.668-36.189 56.862-84.491 56.862-136.008 0-51.521-20.194-99.819-56.862-135.998zM195.189 385.207c-30.094-3.602-58.063-28.719-76.646-69.033 23.389-12.758 49.481-20.04 76.646-21.174v90.207zm15-90.206c27.165 1.134 53.258 8.418 76.651 21.178-18.592 40.312-46.563 65.428-76.651 69.029v-90.207zm0-15.009v-62.907h98.37c-.772 30.315-6.225 59.448-15.912 85.17-25.218-13.489-53.276-21.141-82.458-22.263zm0-77.907v-62.903c28.878-1.131 57.076-8.778 82.433-22.326 9.703 25.736 15.165 54.892 15.937 85.229h-98.37zm0-168.11c30.05 3.602 58.038 28.699 76.632 68.983-23.514 12.813-49.746 20.065-76.632 21.207v-90.19zm89.56 61.194c-9.847-20.896-22.162-38.082-36.095-50.85 20.862 7.685 40.196 19.344 57.049 34.594a176.369 176.369 0 01-20.954 16.256zM171.285 75.866a82.307 82.307 0 00-8.07-29.563c10.237-6.922 20.941-11.052 31.974-12.345v90.211a176.204 176.204 0 01-32.661-4.453c6.862-13.458 9.953-28.636 8.757-43.85zm-17.206 57.231a190.989 190.989 0 0041.111 6.097v62.89h-91.247l50.136-68.987zm41.11 83.988v62.907c-29.181 1.121-57.237 8.771-82.451 22.257-9.688-25.72-15.142-54.853-15.913-85.164h98.364zm-89.573 106.871c9.845 20.916 22.163 38.121 36.105 50.899-20.863-7.687-40.201-19.348-57.057-34.6a176.925 176.925 0 0120.952-16.299zm194.152.005a177.186 177.186 0 0120.947 16.292c-16.853 15.254-36.19 26.917-57.054 34.604 13.94-12.778 26.259-29.983 36.107-50.896zm6.005-13.985c10.896-27.984 16.992-59.825 17.794-92.891h55.038c-1.755 42.239-18.306 81.745-47.188 112.631a192.098 192.098 0 00-25.644-19.74zm72.832-107.891h-55.038c-.802-33.076-6.903-64.927-17.807-92.918a191.427 191.427 0 0025.651-19.714c28.887 30.879 45.44 70.386 47.194 112.632zM41.618 34.717C54.741 21.593 71.981 15.032 89.22 15.032s34.479 6.562 47.602 19.686c23.561 23.561 26.443 60.224 6.854 87.178L89.22 196.828l-54.457-74.932c-19.588-26.955-16.705-63.618 6.855-87.179zm32.879 167.368H26.772c.739-17.819 4.11-35.171 10.076-51.805l37.649 51.805zm-47.727 15h55.047c.802 33.064 6.9 64.904 17.795 92.886-9.02 5.8-17.6 12.395-25.652 19.749-28.885-30.886-45.436-70.394-47.19-112.635z"/><path d="M89.22 131.523c27.131 0 49.204-22.073 49.204-49.205S116.351 33.115 89.22 33.115c-6.844 0-13.471 1.38-19.697 4.103a7.501 7.501 0 006.01 13.744 33.952 33.952 0 0113.688-2.847c18.86 0 34.204 15.344 34.204 34.204s-15.344 34.205-34.204 34.205-34.205-15.344-34.205-34.205c0-4.142-3.357-7.5-7.5-7.5s-7.5 3.358-7.5 7.5c-.001 27.131 22.072 49.204 49.204 49.204z"/><path d="M48.689 63.386c2.539 6.133 11.531 5.989 13.918-.17 2.529-6.527-4.868-12.696-10.841-9.125-3.168 1.894-4.44 5.883-3.077 9.295.191.46-.179-.45 0 0z"/></svg>